<svg width="23" height="24" fill="none" xmlns="http://www.w3.org/2000/svg"><path d="M14.166 10.874l-.222.601.453.453 6.535 6.53.002.002a2.268 2.268 0 010 3.188 2.25 2.25 0 01-3.186-.002l-6.539-6.534-.454-.454-.6.224a6.687 6.687 0 01-4.284.146h-.004c-2.344-.68-4.201-2.643-4.708-5.029h0c-.31-1.456-.152-2.843.349-4.054L5.285 9.72l.707.707.706-.707L9 7.42l.708-.707L9 6.005 5.224 2.232c1.211-.5 2.6-.662 4.059-.36 2.372.506 4.338 2.361 5.03 4.72l.001.002a6.68 6.68 0 01-.148 4.28z" stroke="#5CA7FF" stroke-width="2"/></svg>