<svg width="25" height="24" fill="none" xmlns="http://www.w3.org/2000/svg"><path d="M11.981 0a3.266 3.266 0 00-2.75 1.5L6.418 6.125l1.72 1.031 2.812-4.594c.54-.804 1.562-.824 2.094 0l3.125 5-1.5.875 4.625 2.594V5.718l-1.438.844-3.125-5.061a3.267 3.267 0 00-2.75-1.5V0zM6.387 8.125l-4.5 2.594 1.25.75-2.562 4.218-.032-.031c-.01.02.012.043 0 .063-1.472 2.23.228 5.312 2.938 5.312h5.5v-2h-5.5c-1.266 0-1.945-1.25-1.28-2.219l.03-.031v-.031l2.625-4.25 1.531.937V8.125zm14.656 3.562l-1.718 1.063 2.5 4c.64 1.09-.086 2.281-1.25 2.281h-5.594v-2l-4.906 3 4.906 3v-2h5.594c2.636 0 4.328-3 2.968-5.313v-.03l-2.5-4.001z" fill="#fff"/></svg>