<svg width="13" height="27" fill="none" xmlns="http://www.w3.org/2000/svg"><path d="M7.814 11.934c-2.328-.78-4.54-1.415-4.54-3.308 0-1.776 1.925-2.412 3.117-2.412 1.394 0 2.256.665 2.744 1.3.417.549 1.135.766 1.767.506a1.487 1.487 0 00.59-2.283c-.69-.924-1.868-1.92-3.764-2.238v-1.56c0-.795-.647-1.445-1.437-1.445s-1.437.65-1.437 1.445v1.603C2.886 3.932.272 5.55.272 8.684c0 3.712 3.318 4.854 5.775 5.735 2.715.967 3.922 1.863 3.922 3.524 0 1.964-1.796 2.773-3.405 2.773-2.026 0-3.117-1.343-3.678-2.397-.345-.68-1.178-.94-1.867-.65l-.086.043a1.497 1.497 0 00-.776 2.051c.704 1.372 2.054 3.048 4.697 3.654v1.633c0 .794.647 1.444 1.437 1.444s1.437-.65 1.437-1.444v-1.56C7.814 23.475 13 22.898 13 17.9c.028-3.221-2.083-4.882-5.186-5.966z" fill="#fff"/></svg>