<svg width="24" height="28" fill="none" xmlns="http://www.w3.org/2000/svg"><path d="M23.512 20.617c-.464.82-1.235 1.408-2.315 1.764-1.08.355-2.36.46-3.84.314-.642 1.66-1.432 2.958-2.369 3.897-.936.939-1.935 1.408-2.997 1.408-1.061 0-2.06-.474-2.997-1.422-.937-.948-1.726-2.242-2.369-3.883-1.48.146-2.76.041-3.84-.314-1.08-.356-1.851-.944-2.315-1.764-.482-.893-.593-1.905-.334-3.035.258-1.13.86-2.324 1.806-3.582C.996 12.742.394 11.548.136 10.418c-.26-1.13-.148-2.142.334-3.035.464-.82 1.24-1.408 2.328-1.764 1.089-.355 2.364-.46 3.827-.314.643-1.66 1.432-2.958 2.369-3.897C9.93.47 10.93 0 11.99 0c1.062 0 2.06.47 2.997 1.408.937.939 1.727 2.238 2.369 3.897 1.48-.146 2.76-.041 3.84.314 1.08.356 1.851.944 2.315 1.764.5.875.616 1.882.348 3.021-.268 1.14-.874 2.338-1.82 3.596.946 1.258 1.552 2.452 1.82 3.582s.152 2.142-.348 3.035zm-1.552-.984c.642-1.094.312-2.543-.99-4.348a21.256 21.256 0 01-2.355 2.215 21.707 21.707 0 01-.696 3.473c2.087.127 3.434-.32 4.04-1.34zM7.294 9.105c.464-.31.92-.592 1.365-.847.09-.037.428-.21 1.017-.52a16.043 16.043 0 00-1.953-.492c-.179.62-.322 1.24-.429 1.86zm2.248.711a27.131 27.131 0 00-2.569 1.668c-.071.82-.107 1.66-.107 2.516 0 .747.036 1.595.107 2.543a27.841 27.841 0 002.57 1.64c.767.438 1.578.84 2.435 1.204a29.78 29.78 0 002.489-1.203 27.142 27.142 0 002.569-1.668c.071-.839.107-1.677.107-2.516 0-.73-.045-1.577-.134-2.543a30.081 30.081 0 00-2.542-1.64 25.882 25.882 0 00-2.463-1.204 26.71 26.71 0 00-2.462 1.203zM5.18 12.934c-.357.31-.722.665-1.097 1.066.357.383.723.738 1.097 1.066A39.006 39.006 0 015.153 14c0-.292.01-.647.027-1.066zm11.535 5.96c-.5.31-.964.593-1.392.848l-1.017.52c.678.218 1.33.383 1.954.492.178-.62.33-1.24.455-1.86zm2.114-3.828c.357-.328.713-.683 1.07-1.066-.339-.365-.704-.72-1.097-1.066.036.601.053.957.053 1.066 0 .182-.008.538-.026 1.066zM12.004 26.25c.714 0 1.392-.333 2.034-.998.643-.665 1.196-1.59 1.66-2.775a22.3 22.3 0 01-3.72-1.122c-1.285.51-2.516.885-3.693 1.122.481 1.184 1.043 2.11 1.686 2.775.642.665 1.32.998 2.034.998zM9.65 20.262c-.41-.2-.74-.374-.99-.52-.41-.237-.865-.52-1.365-.848.125.73.268 1.35.429 1.86a13.497 13.497 0 001.926-.492zm-7.627-.63c.625 1.022 1.972 1.468 4.041 1.34a24.3 24.3 0 01-.695-3.472 22.9 22.9 0 01-2.356-2.188c-1.284 1.805-1.614 3.245-.99 4.32zm0-11.265c-.624 1.094-.294 2.534.99 4.32A22.9 22.9 0 015.368 10.5a21.68 21.68 0 01.695-3.473c-2.07-.127-3.416.32-4.04 1.34zm9.982-6.617c-.713 0-1.391.333-2.033.998-.643.665-1.205 1.59-1.686 2.775 1.195.237 2.435.611 3.72 1.122 1.302-.51 2.533-.885 3.693-1.122-.482-1.184-1.04-2.11-1.673-2.775s-1.307-.998-2.02-.998zm2.356 5.988c.374.2.695.374.963.52.392.237.847.52 1.365.847a21.5 21.5 0 00-.402-1.859c-.535.091-1.177.255-1.927.492zm7.6.63c-.607-1.022-1.954-1.468-4.041-1.34.303 1.075.535 2.232.696 3.472a22.903 22.903 0 012.355 2.188c1.284-1.787 1.614-3.227.99-4.32z" fill="#fff"/></svg>