<svg width="22" height="27" fill="none" xmlns="http://www.w3.org/2000/svg"><path fill-rule="evenodd" clip-rule="evenodd" d="M1.643 1.804A3.333 3.333 0 014 .827h9.917a1 1 0 01.707.293l6.416 6.417a1 1 0 01.293.707v14.583A3.333 3.333 0 0118 26.161H4a3.333 3.333 0 01-3.333-3.334V4.161c0-.884.35-1.732.976-2.357zM4 2.827h8.333v6a1 1 0 001 1h6v13A1.333 1.333 0 0118 24.161H4a1.333 1.333 0 01-1.333-1.334V4.161A1.333 1.333 0 014 2.827zm10.333 5h4.17l-4.17-4.169v4.17zm.874 7.541a1 1 0 00-1.414-1.414l-3.96 3.96-1.626-1.627a1 1 0 00-1.414 1.414l2.333 2.334a1 1 0 001.414 0l4.667-4.667z" fill="#fff"/></svg>