<svg width="19" height="24" fill="none" xmlns="http://www.w3.org/2000/svg"><path fill-rule="evenodd" clip-rule="evenodd" d="M.903.95A3.089 3.089 0 013.125 0h8.5a1 1 0 01.72.305l6.374 6.6A1 1 0 0119 7.6v13.2a3.24 3.24 0 01-.903 2.25 3.09 3.09 0 01-2.222.95H3.125c-.84 0-1.639-.346-2.222-.95A3.24 3.24 0 010 20.8V3.2C0 2.362.321 1.552.903.95zM17 8.004V11.6h-4.375V6a1 1 0 10-2 0v6.1H5.25a1 1 0 100 2h8.5a1 1 0 00.866-.5H17v7.2c0 .33-.127.638-.342.86-.213.222-.496.34-.783.34H3.125a1.09 1.09 0 01-.783-.34A1.24 1.24 0 012 20.8V3.2c0-.33.127-.638.342-.86.214-.222.496-.34.783-.34h8.076L17 8.004zM4.25 17.5a1 1 0 011-1h8.5a1 1 0 110 2h-8.5a1 1 0 01-1-1zm1-9.8a1 1 0 000 2h2.125a1 1 0 100-2H5.25z" fill="#fff"/></svg>