<svg width="20" height="25" fill="none" xmlns="http://www.w3.org/2000/svg"><path d="M18.807 11.071a9.5 9.5 0 00-2.266-3.15l-.796-.73a.221.221 0 00-.355.09l-.356 1.02c-.222.64-.629 1.294-1.206 1.937a.17.17 0 01-.112.054.15.15 0 01-.118-.04.161.161 0 01-.054-.132c.1-1.646-.391-3.503-1.469-5.524-.891-1.678-2.13-2.988-3.677-3.902L7.268.03a.22.22 0 00-.328.2L7 1.542c.041.897-.063 1.69-.309 2.349a7.798 7.798 0 01-1.285 2.228c-.384.468-.82.89-1.299 1.261a9.642 9.642 0 00-2.742 3.322 9.509 9.509 0 00-.233 7.938 9.607 9.607 0 005.124 5.075 9.622 9.622 0 003.744.75 9.67 9.67 0 003.743-.747 9.532 9.532 0 003.06-2.043 9.464 9.464 0 002.822-6.75 9.41 9.41 0 00-.818-3.854zm-3.31 9.278A7.752 7.752 0 0110 22.602a7.752 7.752 0 01-5.496-2.253 7.594 7.594 0 01-2.27-5.425c0-1.19.268-2.33.796-3.39a7.734 7.734 0 012.21-2.677 9.56 9.56 0 001.602-1.554 9.687 9.687 0 001.591-2.761c.153-.412.264-.838.331-1.272.66.607 1.211 1.34 1.674 2.199.913 1.711 1.334 3.234 1.252 4.53a2.024 2.024 0 003.522 1.483c.363-.408.678-.823.94-1.247.383.49.703 1.022.957 1.597.435.978.657 2.02.657 3.092a7.59 7.59 0 01-2.27 5.425z" fill="#fff"/></svg>