<svg width="230" height="49" fill="none" xmlns="http://www.w3.org/2000/svg"><path d="M28.8 39l-.04-16.8-8.24 13.84H17.6L9.4 22.56V39H3.32V11h5.36l10.48 17.4L29.48 11h5.32l.08 28H28.8zm26.123.48c-2.853 0-5.44-.613-7.76-1.84-2.293-1.253-4.106-2.973-5.44-5.16-1.306-2.213-1.96-4.707-1.96-7.48 0-2.773.654-5.253 1.96-7.44a13.873 13.873 0 015.44-5.16c2.32-1.253 4.92-1.88 7.8-1.88 2.427 0 4.614.427 6.56 1.28 1.973.853 3.627 2.08 4.96 3.68l-4.16 3.84c-1.893-2.187-4.24-3.28-7.04-3.28-1.733 0-3.28.387-4.64 1.16a8.104 8.104 0 00-3.2 3.16c-.746 1.36-1.12 2.907-1.12 4.64 0 1.733.373 3.28 1.12 4.64a8.384 8.384 0 003.2 3.2c1.36.747 2.907 1.12 4.64 1.12 2.8 0 5.147-1.107 7.04-3.32l4.16 3.84c-1.333 1.627-2.987 2.867-4.96 3.72-1.973.853-4.173 1.28-6.6 1.28zM96.34 39l-.04-16.8-8.24 13.84h-2.92l-8.2-13.48V39h-6.08V11h5.36L86.7 28.4 97.02 11h5.32l.08 28h-6.08z" fill="#fff"/><path d="M115 10v30" stroke="#fff"/><path d="M128.555 16l-2.664-6.96h-.043c.05.55.075 1.206.075 1.965V16h-.843V8.147h1.375l2.486 6.478h.043l2.509-6.478h1.364V16h-.913v-5.06c0-.58.025-1.21.075-1.89h-.043L129.291 16h-.736zm10.442 0l-.177-.838h-.043c-.294.369-.588.62-.881.752-.29.129-.654.193-1.09.193-.584 0-1.042-.15-1.375-.45-.33-.302-.495-.73-.495-1.284 0-1.19.951-1.812 2.852-1.87l.999-.032v-.365c0-.462-.1-.802-.3-1.02-.197-.223-.514-.334-.951-.334-.491 0-1.046.15-1.665.452l-.274-.683a4.246 4.246 0 011.993-.504c.702 0 1.221.155 1.557.467.341.311.511.81.511 1.498V16h-.661zm-2.014-.628c.555 0 .99-.153 1.305-.457.319-.304.478-.73.478-1.278v-.532l-.892.038c-.709.025-1.221.136-1.536.333-.311.193-.467.495-.467.907 0 .323.097.568.29.736.197.168.471.253.822.253zm9.04.628v-3.808c0-.48-.109-.838-.327-1.074-.219-.237-.561-.355-1.026-.355-.616 0-1.067.167-1.354.5-.286.333-.43.882-.43 1.649V16h-.891v-5.887h.725l.145.806h.043c.183-.29.439-.514.768-.671a2.469 2.469 0 011.101-.242c.709 0 1.243.172 1.601.515.358.34.537.887.537 1.639V16h-.892zm6.844 0l-.177-.838h-.043c-.294.369-.588.62-.881.752-.29.129-.654.193-1.091.193-.583 0-1.042-.15-1.375-.45-.329-.302-.494-.73-.494-1.284 0-1.19.951-1.812 2.852-1.87l.999-.032v-.365c0-.462-.1-.802-.3-1.02-.197-.223-.514-.334-.951-.334-.491 0-1.046.15-1.665.452l-.274-.683a4.246 4.246 0 011.993-.504c.701 0 1.221.155 1.557.467.34.311.51.81.51 1.498V16h-.66zm-2.014-.628c.555 0 .99-.153 1.305-.457.319-.304.478-.73.478-1.278v-.532l-.892.038c-.709.025-1.221.136-1.536.333-.311.193-.467.495-.467.907 0 .323.097.568.29.736.197.168.471.253.822.253zm9.83-5.259v.564l-1.091.13c.101.124.19.29.269.493.079.2.118.428.118.682 0 .577-.197 1.037-.591 1.38-.394.345-.934.516-1.622.516-.175 0-.34-.014-.494-.043-.38.201-.569.453-.569.758a.39.39 0 00.198.36c.133.075.36.112.683.112h1.042c.637 0 1.126.135 1.466.403.344.269.515.66.515 1.171 0 .652-.261 1.148-.784 1.488-.523.344-1.285.516-2.288.516-.77 0-1.364-.144-1.783-.43-.415-.287-.623-.691-.623-1.214 0-.358.115-.668.344-.93.229-.26.551-.438.966-.53a.954.954 0 01-.381-.318.85.85 0 01-.15-.5c0-.214.057-.402.172-.563.114-.161.295-.317.542-.468a1.603 1.603 0 01-.746-.639 1.89 1.89 0 01-.285-1.031c0-.644.193-1.14.58-1.488.387-.35.934-.526 1.643-.526.308 0 .586.036.833.107h2.036zm-4.695 6.875a.8.8 0 00.403.725c.269.165.654.247 1.155.247.748 0 1.302-.112 1.66-.338.361-.222.542-.524.542-.908 0-.318-.098-.54-.295-.666-.197-.121-.568-.182-1.112-.182h-1.069c-.405 0-.72.096-.945.29-.226.193-.339.47-.339.832zm.484-4.99c0 .412.116.724.349.935.233.211.557.317.972.317.87 0 1.305-.422 1.305-1.268 0-.884-.44-1.326-1.321-1.326-.419 0-.741.113-.967.338-.226.226-.338.56-.338 1.005zm8.401 4.11c-.87 0-1.558-.266-2.063-.796-.501-.53-.752-1.265-.752-2.207 0-.949.233-1.703.699-2.261.469-.559 1.097-.838 1.885-.838.738 0 1.321.243 1.751.73.43.484.644 1.123.644 1.918v.564h-4.055c.018.69.192 1.215.521 1.573.333.359.801.538 1.402.538a4.74 4.74 0 001.88-.398v.795a4.558 4.558 0 01-.897.29 4.84 4.84 0 01-1.015.091zm-.242-5.356c-.472 0-.85.154-1.133.462-.279.308-.444.734-.494 1.279h3.077c0-.563-.125-.992-.376-1.29-.25-.3-.608-.45-1.074-.45zM176.561 16v-3.83c0-.469-.1-.82-.3-1.052-.201-.237-.513-.355-.935-.355-.555 0-.965.16-1.23.478-.265.319-.397.81-.397 1.472V16h-.892v-3.83c0-.469-.1-.82-.301-1.052-.2-.237-.514-.355-.94-.355-.558 0-.968.168-1.23.505-.258.333-.387.88-.387 1.644V16h-.891v-5.887h.725l.145.806h.043c.168-.287.405-.51.709-.671a2.19 2.19 0 011.031-.242c.92 0 1.522.333 1.805.999h.043c.175-.308.43-.552.763-.73a2.365 2.365 0 011.138-.27c.666 0 1.164.173 1.493.516.333.34.5.887.5 1.639V16h-.892zm5.716.107c-.87 0-1.558-.265-2.062-.794-.502-.53-.752-1.266-.752-2.208 0-.949.232-1.703.698-2.261.469-.559 1.097-.838 1.885-.838.738 0 1.321.243 1.751.73.43.484.645 1.123.645 1.918v.564h-4.056c.018.69.192 1.215.521 1.573.333.359.801.538 1.402.538a4.74 4.74 0 001.88-.398v.795a4.558 4.558 0 01-.897.29 4.84 4.84 0 01-1.015.091zm-.242-5.355c-.472 0-.85.154-1.133.462-.279.308-.444.734-.494 1.279h3.078c0-.563-.126-.992-.376-1.29-.251-.3-.609-.45-1.075-.45zM190.49 16v-3.808c0-.48-.109-.838-.327-1.074-.219-.237-.561-.355-1.026-.355-.616 0-1.067.167-1.354.5-.286.333-.429.882-.429 1.649V16h-.892v-5.887h.725l.145.806h.043c.183-.29.439-.514.768-.671.33-.162.697-.242 1.101-.242.709 0 1.243.172 1.601.515.358.34.537.887.537 1.639V16h-.892zm5.125-.628c.158 0 .31-.011.457-.033.147-.025.263-.05.349-.075v.682a1.58 1.58 0 01-.43.113 2.983 2.983 0 01-.505.048c-1.138 0-1.708-.6-1.708-1.799v-3.502h-.843v-.43l.843-.37.376-1.257h.516v1.364h1.708v.693h-1.708v3.465c0 .354.084.626.252.816.169.19.4.285.693.285zm-67.173 5.48c-.863 0-1.545.287-2.046.864-.498.573-.747 1.359-.747 2.358 0 1.027.24 1.822.72 2.384.483.56 1.171.838 2.062.838.548 0 1.173-.098 1.875-.295v.8c-.545.204-1.216.306-2.014.306-1.157 0-2.05-.35-2.681-1.052-.626-.702-.94-1.7-.94-2.992 0-.81.151-1.518.452-2.127a3.278 3.278 0 011.31-1.407c.573-.33 1.246-.494 2.02-.494.823 0 1.543.15 2.159.45l-.387.785a4.16 4.16 0 00-1.783-.419zm9.019 4.2c0 .959-.242 1.71-.725 2.25-.484.537-1.151.805-2.004.805-.526 0-.993-.123-1.402-.37a2.446 2.446 0 01-.945-1.064c-.222-.462-.333-1.002-.333-1.622 0-.96.24-1.706.72-2.24.48-.537 1.146-.805 1.998-.805.823 0 1.477.274 1.96.822.487.547.731 1.289.731 2.223zm-4.485 0c0 .751.15 1.324.451 1.718.301.394.743.59 1.327.59.583 0 1.026-.194 1.326-.585.305-.393.457-.968.457-1.724 0-.748-.152-1.316-.457-1.702-.3-.39-.746-.586-1.337-.586-.584 0-1.024.192-1.321.575-.297.383-.446.954-.446 1.713zM147.028 28v-3.83c0-.469-.101-.82-.301-1.052-.201-.237-.512-.355-.935-.355-.555 0-.965.16-1.23.478-.265.319-.397.81-.397 1.472V28h-.892v-3.83c0-.469-.1-.82-.301-1.052-.2-.237-.513-.355-.94-.355-.558 0-.968.168-1.23.505-.257.333-.386.88-.386 1.644V28h-.892v-5.887h.725l.145.806h.043c.169-.287.405-.51.709-.671a2.19 2.19 0 011.031-.242c.921 0 1.522.333 1.805.999h.043c.176-.308.43-.552.763-.73a2.366 2.366 0 011.139-.27c.666 0 1.163.173 1.493.517.333.34.499.886.499 1.638V28h-.891zm5.968.107c-.383 0-.734-.07-1.053-.21a2.002 2.002 0 01-.795-.654h-.064c.043.343.064.67.064.977v2.423h-.892v-8.53h.726l.123.806h.043a2.07 2.07 0 01.8-.698 2.438 2.438 0 011.048-.215c.78 0 1.382.267 1.804.8.427.534.64 1.282.64 2.245 0 .967-.217 1.719-.65 2.256-.43.534-1.028.8-1.794.8zm-.129-5.344c-.602 0-1.037.167-1.305.5-.269.333-.407.863-.414 1.59v.198c0 .827.138 1.42.414 1.778.275.355.718.532 1.326.532.509 0 .906-.206 1.193-.618.29-.412.435-.98.435-1.702 0-.735-.145-1.297-.435-1.687-.287-.394-.691-.59-1.214-.59zM161.118 28l-.178-.838h-.043c-.293.369-.587.62-.88.752-.29.129-.654.193-1.091.193-.583 0-1.042-.15-1.375-.45-.329-.302-.494-.73-.494-1.284 0-1.19.951-1.812 2.852-1.87l.999-.032v-.365c0-.462-.1-.802-.301-1.02-.196-.223-.513-.334-.95-.334-.491 0-1.046.15-1.665.452l-.274-.683a4.256 4.256 0 011.992-.504c.702 0 1.221.155 1.558.467.34.311.51.81.51 1.498V28h-.66zm-2.014-.628c.555 0 .99-.153 1.305-.457.318-.304.478-.73.478-1.278v-.532l-.892.038c-.709.025-1.221.136-1.536.333-.312.193-.467.495-.467.907 0 .323.096.568.29.736.197.168.471.253.822.253zm9.04.628v-3.808c0-.48-.109-.838-.328-1.074-.218-.237-.56-.355-1.026-.355-.615 0-1.067.167-1.353.5-.287.333-.43.882-.43 1.649V28h-.891v-5.887h.725l.145.806h.043c.182-.29.438-.514.768-.671a2.469 2.469 0 011.101-.242c.709 0 1.242.172 1.6.515.359.34.538.887.538 1.639V28h-.892zm2.289-5.887h.956l1.289 3.357c.283.767.458 1.32.526 1.66h.043c.047-.183.144-.494.29-.935.151-.444.638-1.804 1.461-4.082h.956l-2.529 6.703c-.251.663-.545 1.132-.881 1.408-.333.279-.743.419-1.23.419-.272 0-.541-.03-.806-.092v-.714c.197.043.417.064.661.064.612 0 1.049-.343 1.31-1.03l.328-.839-2.374-5.919zM128.555 40l-2.664-6.96h-.043c.05.55.075 1.206.075 1.965V40h-.843v-7.852h1.375l2.486 6.477h.043l2.509-6.477h1.364V40h-.913v-5.06c0-.58.025-1.21.075-1.89h-.043L129.291 40h-.736zm11.903-2.949c0 .96-.242 1.71-.725 2.25-.484.538-1.151.806-2.004.806a2.65 2.65 0 01-1.401-.37 2.442 2.442 0 01-.946-1.064c-.222-.462-.333-1.002-.333-1.622 0-.96.24-1.706.72-2.24.48-.537 1.146-.805 1.998-.805.824 0 1.477.274 1.96.822.487.547.731 1.289.731 2.223zm-4.485 0c0 .752.15 1.325.451 1.719.301.394.743.59 1.327.59s1.026-.194 1.327-.585c.304-.393.456-.968.456-1.724 0-.748-.152-1.316-.456-1.702-.301-.39-.747-.586-1.338-.586-.584 0-1.024.192-1.321.575-.297.383-.446.954-.446 1.713zM146.55 40v-3.808c0-.48-.11-.838-.328-1.074-.218-.237-.56-.355-1.026-.355-.616 0-1.067.167-1.353.5-.287.333-.43.882-.43 1.649V40h-.892v-5.887h.725l.145.806h.043c.183-.29.439-.514.768-.671.33-.162.697-.242 1.101-.242.709 0 1.243.172 1.601.516.358.34.537.886.537 1.638V40h-.891zm8.304-2.949c0 .96-.242 1.71-.725 2.25-.483.538-1.151.806-2.003.806-.527 0-.994-.123-1.402-.37a2.448 2.448 0 01-.946-1.064c-.222-.462-.333-1.002-.333-1.622 0-.96.24-1.706.72-2.24.48-.537 1.146-.805 1.998-.805.824 0 1.477.274 1.961.822.487.547.73 1.289.73 2.223zm-4.485 0c0 .752.151 1.325.451 1.719.301.394.743.59 1.327.59s1.026-.194 1.327-.585c.304-.393.456-.968.456-1.724 0-.748-.152-1.316-.456-1.702-.301-.39-.747-.586-1.338-.586-.583 0-1.024.192-1.321.575-.297.383-.446.954-.446 1.713zm9.288 3.056c-.383 0-.734-.07-1.053-.21a2.002 2.002 0 01-.795-.654h-.064c.043.343.064.67.064.977v2.423h-.892v-8.53h.726l.123.806h.043a2.07 2.07 0 01.8-.698 2.438 2.438 0 011.048-.215c.78 0 1.382.267 1.804.8.427.534.64 1.282.64 2.245 0 .967-.217 1.719-.65 2.256-.43.534-1.028.8-1.794.8zm-.129-5.344c-.602 0-1.037.167-1.305.5-.269.333-.407.863-.414 1.59v.198c0 .827.138 1.42.414 1.778.275.355.718.532 1.326.532.509 0 .906-.206 1.193-.618.29-.412.435-.98.435-1.703 0-.733-.145-1.296-.435-1.686-.287-.394-.691-.59-1.214-.59zm9.712 2.288c0 .96-.242 1.71-.725 2.25-.484.538-1.152.806-2.004.806-.526 0-.994-.123-1.402-.37a2.446 2.446 0 01-.945-1.064c-.222-.462-.333-1.002-.333-1.622 0-.96.24-1.706.72-2.24.479-.537 1.146-.805 1.998-.805.823 0 1.477.274 1.96.822.487.547.731 1.289.731 2.223zm-4.485 0c0 .752.15 1.325.451 1.719.301.394.743.59 1.327.59.583 0 1.025-.194 1.326-.585.305-.393.457-.968.457-1.724 0-.748-.152-1.316-.457-1.702-.301-.39-.746-.586-1.337-.586-.584 0-1.024.192-1.321.575-.298.383-.446.954-.446 1.713zm7.44 2.949h-.892v-8.357h.892V40zm1.451-5.887h.956l1.289 3.357c.283.767.458 1.32.526 1.66h.043c.047-.183.143-.494.29-.935.151-.444.638-1.804 1.461-4.082h.956l-2.53 6.703c-.25.663-.544 1.132-.88 1.408-.334.279-.743.419-1.23.419-.273 0-.541-.03-.806-.092v-.714c.197.043.417.064.661.064.612 0 1.049-.343 1.31-1.03l.328-.839-2.374-5.919z" fill="#fff"/></svg>